# xmcd
#
# Track frame offsets:
#   150
#   13322
#   29918
#   51676
#   71453
#   89849
#   108264
#   127773
#   147090
#   161343
#   179992
#   199173
#   215600
#   233821
#   253908
#
# Disc length: 3583 seconds
#
# Revision: 0
# Processed by: cddbd v1.5.2PL0 Copyright (c) Steve Scherf et al.
# Submitted via: GXTranscoder 2.24.2980
#
DISCID=ec0dfd0f
DTITLE=Wissen für alle - Kosmologie, die Erde - das Wetter
DYEAR=1900
DGENRE=Kinder
TTITLE0=Unermessliches Universum
TTITLE1=Unser Sonnensystem
TTITLE2=Die Erforschung des Universium
TTITLE3=Entstehung und Aufbau der Erde
TTITLE4=Wandernde Kontinente
TTITLE5=Die Atmosphäre
TTITLE6=Die Meere und Ozeane
TTITLE7=Landschaften der Erde
TTITLE8=Brennstoffe
TTITLE9=Erze, Gold und Edelsteine
TTITLE10=Wie das Wetter entsteht
TTITLE11=Das Klima
TTITLE12=Wind und Sturm
TTITLE13=Regen und andere Niederschläge
TTITLE14=Wettervorhersage
EXTD=
EXTT0=
EXTT1=
EXTT2=
EXTT3=
EXTT4=
EXTT5=
EXTT6=
EXTT7=
EXTT8=
EXTT9=
EXTT10=
EXTT11=
EXTT12=
EXTT13=
EXTT14=
PLAYORDER=
